<svg width="31" height="27" viewBox="0 0 31 27" fill="none" xmlns="http://www.w3.org/2000/svg">
<path fill-rule="evenodd" clip-rule="evenodd" d="M1.5 23.0029H4.609C4.959 21.5889 6.179 16.5419 6.475 13.7399C5.671 13.3069 3.306 13.0669 1.5 13.0139V23.0029V23.0029ZM5 24.0029H1C0.724 24.0029 0.5 23.7789 0.5 23.5029V12.5029C0.5 12.3689 0.554 12.2409 0.648 12.1469C0.744 12.0539 0.892 12.0039 1.006 12.0029C1.873 12.0119 6.259 12.1119 7.344 13.1399C7.454 13.2449 7.512 13.3949 7.498 13.5459C7.215 16.7929 5.555 23.3489 5.484 23.6259C5.429 23.8479 5.229 24.0029 5 24.0029V24.0029Z" fill="#4A90E2"/>
<path fill-rule="evenodd" clip-rule="evenodd" d="M17.6033 26.686C16.7783 26.686 16.0723 26.444 15.0223 26.046L14.8233 25.971L5.35027 22.979C5.08627 22.896 4.94027 22.615 5.02327 22.353C5.10627 22.089 5.38827 21.941 5.65027 22.026L15.3773 25.11C17.5993 25.954 17.8853 26.06 22.8113 24.04L29.2763 21.269C28.5363 20.244 27.2583 19.704 26.1213 19.987L21.0983 20.993C20.8403 21.047 20.5643 20.873 20.5103 20.601C20.4553 20.33 20.6313 20.066 20.9023 20.013L25.9023 19.013C27.6463 18.577 29.5713 19.526 30.4473 21.279C30.5093 21.402 30.5173 21.545 30.4703 21.675C30.4223 21.804 30.3233 21.908 30.1973 21.962L23.1973 24.962C20.1953 26.193 18.7783 26.686 17.6033 26.686" fill="#4A90E2"/>
<path fill-rule="evenodd" clip-rule="evenodd" d="M18.7761 21.5939C18.4831 21.5939 18.2051 21.5539 17.9021 21.4929L11.8791 19.9869C11.6101 19.9209 11.4481 19.6489 11.5151 19.3819C11.5811 19.1129 11.8511 18.9489 12.1211 19.0179L18.1211 20.5179C18.5681 20.6069 18.9121 20.6339 19.3791 20.5179L20.4941 20.1449C20.4471 18.7349 20.0851 18.2899 18.8791 17.9869L6.87911 14.9869C6.61011 14.9209 6.44811 14.6489 6.51511 14.3819C6.58111 14.1129 6.84811 13.9499 7.12111 14.0179L19.1211 17.0179C21.1211 17.5179 21.5001 18.6279 21.5001 20.5029C21.5001 20.7179 21.3621 20.9089 21.1581 20.9769L19.6581 21.4769C19.3301 21.5599 19.0471 21.5939 18.7761 21.5939" fill="#4A90E2"/>
<path fill-rule="evenodd" clip-rule="evenodd" d="M24 14.0029C23.724 14.0029 23.5 13.7789 23.5 13.5029V11.5029C23.5 11.2269 23.724 11.0029 24 11.0029C24.276 11.0029 24.5 11.2269 24.5 11.5029V13.5029C24.5 13.7789 24.276 14.0029 24 14.0029" fill="#4A90E2"/>
<path fill-rule="evenodd" clip-rule="evenodd" d="M24 9.00293C22.07 9.00293 20.5 10.5729 20.5 12.5029C20.5 14.4329 22.07 16.0029 24 16.0029C25.93 16.0029 27.5 14.4329 27.5 12.5029C27.5 10.5729 25.93 9.00293 24 9.00293V9.00293ZM24 17.0029C21.519 17.0029 19.5 14.9839 19.5 12.5029C19.5 10.0209 21.519 8.00293 24 8.00293C26.481 8.00293 28.5 10.0209 28.5 12.5029C28.5 14.9839 26.481 17.0029 24 17.0029V17.0029Z" fill="#4A90E2"/>
<path fill-rule="evenodd" clip-rule="evenodd" d="M16 6.00293C15.724 6.00293 15.5 5.77893 15.5 5.50293V3.50293C15.5 3.22693 15.724 3.00293 16 3.00293C16.276 3.00293 16.5 3.22693 16.5 3.50293V5.50293C16.5 5.77893 16.276 6.00293 16 6.00293" fill="#4A90E2"/>
<path fill-rule="evenodd" clip-rule="evenodd" d="M16 1.00293C14.07 1.00293 12.5 2.57293 12.5 4.50293C12.5 6.43293 14.07 8.00293 16 8.00293C17.93 8.00293 19.5 6.43293 19.5 4.50293C19.5 2.57293 17.93 1.00293 16 1.00293V1.00293ZM16 9.00293C13.519 9.00293 11.5 6.98393 11.5 4.50293C11.5 2.02093 13.519 0.00292969 16 0.00292969C18.481 0.00292969 20.5 2.02093 20.5 4.50293C20.5 6.98393 18.481 9.00293 16 9.00293V9.00293Z" fill="#4A90E2"/>
</svg>
