<svg width="31" height="31" viewBox="0 0 31 31" fill="none" xmlns="http://www.w3.org/2000/svg">
<path fill-rule="evenodd" clip-rule="evenodd" d="M1.5 27.0029H4.621C5.044 25.4889 6.65 19.6249 6.974 16.7419C6.131 16.3039 3.5 16.0629 1.5 16.0119V27.0029V27.0029ZM5 28.0029H1C0.724 28.0029 0.5 27.7789 0.5 27.5029V15.5029C0.5 15.3689 0.554 15.2419 0.648 15.1469C0.744 15.0529 0.9 15.0139 1.005 15.0029C1.956 15.0119 6.758 15.1109 7.844 16.1399C7.955 16.2449 8.012 16.3949 7.998 16.5459C7.714 19.7999 5.572 27.3209 5.48 27.6399C5.419 27.8539 5.224 28.0029 5 28.0029V28.0029Z" fill="#4A90E2"/>
<path fill-rule="evenodd" clip-rule="evenodd" d="M17.2593 30.005C16.4493 30.005 15.7303 29.777 14.6913 29.385L5.25432 26.239C4.99232 26.152 4.85132 25.869 4.93732 25.607C5.02632 25.345 5.31032 25.204 5.57032 25.291L15.0263 28.443C17.3503 29.32 17.6473 29.336 22.8753 27.194L29.2793 24.282C28.5653 23.309 27.3393 22.848 26.1243 23.151L21.2943 24.358C21.0223 24.426 20.7543 24.263 20.6873 23.995C20.6213 23.728 20.7833 23.456 21.0523 23.389L25.8823 22.182C27.7223 21.72 29.5993 22.585 30.4463 24.28C30.5073 24.402 30.5163 24.543 30.4713 24.671C30.4253 24.799 30.3293 24.903 30.2063 24.959L23.2713 28.111C20.0053 29.451 18.5213 30.004 17.2593 30.005" fill="#4A90E2"/>
<path fill-rule="evenodd" clip-rule="evenodd" d="M18.5604 24.9099C18.2774 24.9099 17.9964 24.8829 17.7214 24.8279L12.2504 23.7329C11.9794 23.6799 11.8034 23.4169 11.8574 23.1459C11.9124 22.8739 12.1794 22.6969 12.4454 22.7529L17.9164 23.8469C18.3924 23.9409 18.8894 23.9299 19.3564 23.8129L20.6704 23.4839C20.6184 22.2049 20.0214 21.5789 18.5314 21.2069L7.19638 18.6879C6.92738 18.6279 6.75738 18.3609 6.81638 18.0919C6.87638 17.8229 7.14438 17.6529 7.41338 17.7119L18.7614 20.2329C20.7794 20.7389 21.6744 21.7989 21.6744 23.6749V23.8739C21.6744 24.1039 21.5184 24.3029 21.2954 24.3579L19.5994 24.7829C19.2604 24.8679 18.9104 24.9099 18.5604 24.9099" fill="#4A90E2"/>
<path fill-rule="evenodd" clip-rule="evenodd" d="M28.8339 23.5029C28.7989 23.5029 28.7619 23.4989 28.7259 23.4899C28.4559 23.4309 28.2859 23.1629 28.3459 22.8939C28.4779 22.3049 28.5439 21.6909 28.5439 21.0709C28.5439 18.4399 23.4279 11.6409 21.2639 9.00293H16.7299C15.8329 10.0619 11.1279 15.6929 9.96694 18.7089C9.86694 18.9669 9.58194 19.0959 9.31994 18.9959C9.06294 18.8959 8.93494 18.6069 9.03294 18.3499C10.3739 14.8669 15.8879 8.44793 16.1209 8.17693C16.2159 8.06593 16.3539 8.00293 16.4999 8.00293H21.4999C21.6479 8.00293 21.7899 8.06893 21.8849 8.18393C22.1969 8.56193 29.5439 17.4679 29.5439 21.0709C29.5439 21.7649 29.4699 22.4509 29.3219 23.1119C29.2709 23.3449 29.0629 23.5029 28.8339 23.5029" fill="#4A90E2"/>
<path fill-rule="evenodd" clip-rule="evenodd" d="M16.6696 8.00293H21.3316C23.3946 6.42293 26.5706 3.53193 26.7086 2.16693C26.7276 1.97593 26.6746 1.88893 26.6256 1.83393C26.3436 1.51093 24.3506 2.36393 22.3016 3.90193C22.1916 3.98293 22.0566 4.01793 21.9226 3.99593C21.7886 3.97593 21.6696 3.90093 21.5916 3.78993C20.5816 2.35393 19.3676 1.05093 18.9936 1.00193C18.6336 1.05193 17.4186 2.35393 16.4096 3.78993C16.3316 3.90093 16.2126 3.97593 16.0786 3.99593C15.9456 4.01993 15.8106 3.98393 15.6996 3.90193C13.6516 2.36293 11.6576 1.51593 11.3756 1.83293C11.3266 1.88893 11.2736 1.97593 11.2926 2.16693C11.4306 3.53293 14.6066 6.42293 16.6696 8.00293V8.00293ZM21.5006 9.00293H16.5006C16.3926 9.00293 16.2856 8.96693 16.1986 8.90193C15.6186 8.46293 10.5276 4.55193 10.2976 2.26693C10.2556 1.84193 10.3686 1.46293 10.6256 1.17193C11.6446 0.0209297 14.3946 1.72693 15.8896 2.80093C16.6826 1.72393 18.0916 0.00292969 19.0006 0.00292969C19.9096 0.00292969 21.3186 1.72393 22.1116 2.80093C23.6076 1.72793 26.3596 0.0209297 27.3756 1.17193C27.6326 1.46293 27.7456 1.84193 27.7036 2.26693C27.4736 4.55193 22.3826 8.46293 21.8026 8.90193C21.7156 8.96693 21.6086 9.00293 21.5006 9.00293V9.00293Z" fill="#4A90E2"/>
<path fill-rule="evenodd" clip-rule="evenodd" d="M20.49 21.5029C20.361 21.5029 20.232 21.4539 20.135 21.3539C19.94 21.1579 19.942 20.8419 20.139 20.6469C20.371 20.4169 20.5 20.1239 20.5 19.8209C20.5 19.1759 20.036 18.7869 18.995 18.5599L18.883 18.5339C17.273 18.1849 16.5 17.4319 16.5 16.2749C16.5 15.0219 17.622 14.0029 19.002 14.0029C20.316 14.0029 21.413 14.9359 21.499 16.1259C21.519 16.4019 21.312 16.6409 21.036 16.6609C20.762 16.6839 20.521 16.4739 20.501 16.1979C20.453 15.5269 19.795 15.0029 19.002 15.0029C18.174 15.0029 17.5 15.5729 17.5 16.2749C17.5 16.9219 17.966 17.3119 19.011 17.5379C19.015 17.5389 19.116 17.5619 19.12 17.5629C20.729 17.9139 21.5 18.6669 21.5 19.8209C21.5 20.3919 21.267 20.9379 20.842 21.3579C20.745 21.4539 20.617 21.5029 20.49 21.5029" fill="#4A90E2"/>
<path fill-rule="evenodd" clip-rule="evenodd" d="M19 21.0029C18.724 21.0029 18.5 20.7789 18.5 20.5029V13.5029C18.5 13.2269 18.724 13.0029 19 13.0029C19.276 13.0029 19.5 13.2269 19.5 13.5029V20.5029C19.5 20.7789 19.276 21.0029 19 21.0029" fill="#4A90E2"/>
</svg>
