<?xml version="1.0" encoding="UTF-8"?>
<svg width="674px" height="606px" viewBox="0 0 674 606" version="1.1" xmlns="http://www.w3.org/2000/svg" xmlns:xlink="http://www.w3.org/1999/xlink">
    <!-- Generator: Sketch 50 (54983) - http://www.bohemiancoding.com/sketch -->
    <title>backimg__7</title>
    <desc>Created with Sketch.</desc>
    <defs></defs>
    <g id="Page-1" stroke="none" stroke-width="1" fill="none" fill-rule="evenodd">
        <g id="изображения" transform="translate(-2532.000000, -2736.000000)" fill="#EDEDED">
            <path d="M2874.74224,3341.5246 C2923.54897,3341.5246 2943.09759,3279.01248 2985.41249,3261.17326 C3037.63261,3239.15816 3078.5756,3259.21886 3118.28625,3222.65276 C3147.36052,3195.88079 3121.07594,3140.54247 3135.85921,3097.44572 C3150.15644,3055.76589 3206,3026.60409 3206,2983.96157 C3206,2924.14346 3147.79914,2910.33431 3118.28625,2880.30494 C3097.58416,2859.24056 3083.77701,2789.70567 3055.44963,2763.05427 C2992.00415,2703.36252 2945.49101,2763.05427 2851.49835,2763.05427 C2766.5965,2763.05427 2721.36065,2713.28871 2660.32063,2763.05427 C2628.43811,2789.04789 2631.96185,2834.6722 2604.4332,2859.77054 C2563.12851,2897.42872 2532,2917.4335 2532,2983.96157 C2532,3033.45794 2551.39373,3076.31899 2569.72115,3119.11011 C2586.72676,3158.81508 2600.91027,3230.25576 2625.5457,3261.17326 C2653.76252,3296.58539 2676.3316,3291.96486 2724.92837,3306.02124 C2769.02365,3318.77559 2827.00456,3341.5246 2874.74224,3341.5246 Z" id="backimg__7"></path>
        </g>
    </g>
</svg>