<?xml version="1.0" encoding="UTF-8"?>
<svg width="418px" height="478px" viewBox="0 0 418 478" version="1.1" xmlns="http://www.w3.org/2000/svg" xmlns:xlink="http://www.w3.org/1999/xlink">
    <!-- Generator: Sketch 50 (54983) - http://www.bohemiancoding.com/sketch -->
    <title>backimg__5</title>
    <desc>Created with Sketch.</desc>
    <defs></defs>
    <g id="Page-1" stroke="none" stroke-width="1" fill="none" fill-rule="evenodd">
        <g id="изображения" transform="translate(-2381.000000, -4349.000000)" fill="#EDEDED">
            <path d="M2448.14216,4741.62318 C2516.12211,4765.29617 2549.74853,4784.69222 2631.33903,4767.85102 C2633.82608,4767.33766 2730.7427,4731.94276 2764.49815,4702.84562 C2821.4815,4653.72608 2827.93293,4586.92482 2827.93293,4570.50008 C2827.93293,4526.04592 2814.05693,4530.89791 2789.46338,4478.11605 C2779.10578,4455.88692 2776.46653,4427.43585 2723.18977,4388.32997 C2700.84885,4371.93141 2554.84098,4372.55845 2528.59362,4376.62138 C2452.95388,4388.32997 2452.90781,4438.31559 2424.35042,4488.21499 C2391.12927,4546.26354 2366.26628,4544.96229 2361.50437,4587.73732 C2356.74245,4630.51234 2356.74245,4630.51234 2361.50437,4660.68337 C2369.84527,4713.53051 2380.16221,4717.95019 2448.14216,4741.62318 Z" id="backimg__5" transform="translate(2592.932933, 4574.200647) rotate(306.000000) translate(-2592.932933, -4574.200647) "></path>
        </g>
    </g>
</svg>