<?xml version="1.0" encoding="UTF-8"?>
<svg width="629px" height="628px" viewBox="0 0 629 628" version="1.1" xmlns="http://www.w3.org/2000/svg" xmlns:xlink="http://www.w3.org/1999/xlink">
    <!-- Generator: Sketch 50 (54983) - http://www.bohemiancoding.com/sketch -->
    <title>backimg__14</title>
    <desc>Created with Sketch.</desc>
    <defs></defs>
    <g id="Page-1" stroke="none" stroke-width="1" fill="none" fill-rule="evenodd" opacity="0.185825893">
        <g id="изображения" transform="translate(-1509.000000, -2034.000000)" fill="#7CC4EF">
            <path d="M1661.97736,2636.80307 C1665.67718,2636.80307 1719.69103,2661.5246 1784.13166,2661.5246 C1827.37004,2661.5246 1834.42199,2643.40106 1875.29994,2636.80307 C1909.76968,2631.23942 1962.1214,2631.91795 1976.53621,2616.53522 C2003.38131,2587.88752 2036.22208,2536.89885 2061.87103,2501.0799 C2100.49693,2447.13855 2122.38228,2452.96758 2135.49478,2380.40912 C2143.61557,2335.47241 2131.09388,2328.83238 2110.89807,2284.10693 C2090.70226,2239.38149 2090.70226,2199.7541 2049.13527,2171.54049 C2001.12469,2138.95328 2002.29196,2105.2729 1955.92755,2080.66982 C1932.21131,2068.0849 1838.02917,2034.5246 1806.2542,2034.5246 C1620.68859,2034.5246 1511.67432,2181.96028 1511.67432,2369.68018 C1511.67432,2557.40009 1476.41175,2636.80307 1661.97736,2636.80307 Z" id="backimg__14"></path>
        </g>
    </g>
</svg>