<?xml version="1.0" encoding="UTF-8"?>
<svg width="492px" height="419px" viewBox="0 0 492 419" version="1.1" xmlns="http://www.w3.org/2000/svg" xmlns:xlink="http://www.w3.org/1999/xlink">
    <!-- Generator: Sketch 50 (54983) - http://www.bohemiancoding.com/sketch -->
    <title>backimg__1</title>
    <desc>Created with Sketch.</desc>
    <defs></defs>
    <g id="Page-1" stroke="none" stroke-width="1" fill="none" fill-rule="evenodd">
        <g id="изображения" transform="translate(-836.000000, -6973.000000)" fill="#BDE6FF">
            <path d="M930.431783,7357.8751 C1001.59377,7382.67256 1036.7942,7402.98992 1122.20383,7385.34876 C1123.76817,7385.02565 1152.48669,7354.76988 1189.64106,7337.42066 C1214.32117,7325.89629 1247.49241,7329.42085 1261.59593,7317.25561 C1321.24658,7265.80289 1328,7195.82857 1328,7178.62365 C1328,7132.05792 1313.47448,7137.14038 1287.72974,7081.85139 C1276.88732,7058.56637 1274.12453,7028.76388 1218.35397,6987.80046 C1194.9673,6970.62298 1042.12501,6971.2798 1014.64906,6975.53572 C935.468739,6987.80046 935.420512,7040.1604 905.526389,7092.43002 C870.750213,7153.23588 844.723421,7151.87282 839.738609,7196.67966 C834.753797,7241.4865 834.753797,7241.4865 839.738609,7273.09065 C848.469933,7328.44803 859.269791,7333.07765 930.431783,7357.8751 Z" id="backimg__1"></path>
        </g>
    </g>
</svg>