<?xml version="1.0" encoding="UTF-8"?>
<svg width="664px" height="689px" viewBox="0 0 664 689" version="1.1" xmlns="http://www.w3.org/2000/svg" xmlns:xlink="http://www.w3.org/1999/xlink">
    <!-- Generator: Sketch 50 (54983) - http://www.bohemiancoding.com/sketch -->
    <title>backimg__9</title>
    <desc>Created with Sketch.</desc>
    <defs></defs>
    <g id="Page-1" stroke="none" stroke-width="1" fill="none" fill-rule="evenodd">
        <g id="изображения" transform="translate(-1203.000000, -1329.000000)" fill="#EDEDED">
            <path d="M1364.48962,1990.39795 C1368.39531,1990.39795 1425.41469,2017.5246 1493.44105,2017.5246 C1539.08538,2017.5246 1546.52973,1997.63784 1589.68229,1990.39795 C1626.07006,1984.29301 1681.33483,1985.03756 1696.55174,1968.15826 C1724.8906,1936.72346 1759.55877,1880.77417 1786.63492,1841.47045 C1827.41012,1782.28122 1850.51325,1788.67734 1864.35538,1709.05977 C1872.92805,1659.75122 1859.7096,1652.46519 1838.39001,1603.38847 C1817.07043,1554.31174 1817.07043,1510.82906 1773.1905,1479.87058 C1722.50842,1444.11301 1723.74063,1407.15591 1674.79633,1380.15923 C1649.76043,1366.34994 1550.33763,1329.5246 1516.79458,1329.5246 C1320.90338,1329.5246 1205.82313,1491.3041 1205.82313,1697.28703 C1205.82313,1903.26996 1168.59842,1990.39795 1364.48962,1990.39795 Z" id="backimg__9"></path>
        </g>
    </g>
</svg>