<?xml version="1.0" encoding="UTF-8"?>
<svg width="829px" height="838px" viewBox="0 0 829 838" version="1.1" xmlns="http://www.w3.org/2000/svg" xmlns:xlink="http://www.w3.org/1999/xlink">
    <!-- Generator: Sketch 50 (54983) - http://www.bohemiancoding.com/sketch -->
    <title>backimg__10</title>
    <desc>Created with Sketch.</desc>
    <defs></defs>
    <g id="Page-1" stroke="none" stroke-width="1" fill="none" fill-rule="evenodd">
        <g id="изображения" transform="translate(-2223.000000, -639.000000)" fill="#BDE6FF">
            <path d="M2338.20144,1311.16399 C2341.16209,1311.16399 2417.04012,1381.60125 2481.13529,1401.05489 C2530.63637,1416.07905 2569.21785,1470.31172 2608.89614,1467.66813 C2679.87681,1462.939 2653.93649,1457.03164 2711.91046,1448.83718 C2760.79615,1441.92732 2866.29558,1482.49828 2886.73895,1463.39347 C2924.81123,1427.81405 2971.3867,1364.48794 3007.76257,1320.00208 C3062.54262,1253.00884 3100.70161,1269.67202 3119.29803,1179.55699 C3130.81511,1123.7472 3096.36254,1098.80727 3058.51887,1042.04328 C3020.67519,985.279289 3014.31395,919.655438 2955.36279,884.615138 C2887.27319,844.142987 2923.26629,828.423863 2857.51132,797.867717 C2823.87646,782.237693 2690.3054,740.556997 2645.24148,740.556997 C2382.06848,740.556997 2227.46219,923.666858 2227.46219,1156.8083 C2227.46219,1389.94975 2075.02845,1311.16399 2338.20144,1311.16399 Z" id="backimg__10" transform="translate(2652.554078, 1104.556997) rotate(141.000000) translate(-2652.554078, -1104.556997) "></path>
        </g>
    </g>
</svg>