<?xml version="1.0" encoding="UTF-8"?>
<svg width="400px" height="385px" viewBox="0 0 400 385" version="1.1" xmlns="http://www.w3.org/2000/svg" xmlns:xlink="http://www.w3.org/1999/xlink">
    <!-- Generator: Sketch 50 (54983) - http://www.bohemiancoding.com/sketch -->
    <title>backimg__4</title>
    <desc>Created with Sketch.</desc>
    <defs></defs>
    <g id="Page-1" stroke="none" stroke-width="1" fill="none" fill-rule="evenodd">
        <g id="изображения" transform="translate(-1007.000000, -4010.000000)" fill="#BDE6FF">
            <path d="M1231.99962,4386.86421 C1317.74574,4370.22532 1364.28919,4374.95884 1385.04618,4282.91205 C1391.53151,4254.15289 1410.7599,4205.88062 1409.88948,4195.25959 C1406.17051,4149.88027 1388.1134,4139.97386 1348.4694,4095.55347 C1323.471,4067.54323 1282.6317,4024.94269 1246.40407,4024.94269 C1196.83203,4024.94269 1129.60459,4043.83785 1066.96246,4075.71946 C1021.13293,4099.04432 1033.26838,4148.71372 1019.59292,4195.25959 C1013.29585,4216.69233 999.438486,4263.38075 1007.23631,4282.91205 C1026.90592,4332.17881 1058.42323,4338.19228 1104.4709,4386.86421 C1128.73861,4412.51493 1216.92848,4389.78873 1231.99962,4386.86421 Z" id="backimg__4" transform="translate(1207.418091, 4211.942695) rotate(-225.000000) translate(-1207.418091, -4211.942695) "></path>
        </g>
    </g>
</svg>