<?xml version="1.0" encoding="UTF-8"?>
<svg width="750px" height="669px" viewBox="0 0 750 669" version="1.1" xmlns="http://www.w3.org/2000/svg" xmlns:xlink="http://www.w3.org/1999/xlink">
    <!-- Generator: Sketch 50 (54983) - http://www.bohemiancoding.com/sketch -->
    <title>backimg__3</title>
    <desc>Created with Sketch.</desc>
    <defs></defs>
    <g id="Page-1" stroke="none" stroke-width="1" fill="none" fill-rule="evenodd">
        <g id="изображения" transform="translate(-778.000000, -5553.000000)" fill="#B9D9FF">
            <path d="M1195.70547,6221.5246 C1268.56123,6221.5246 1288.01974,6181.42126 1335.7003,6161.32395 C1394.54208,6136.52219 1414.11976,6117.45501 1458.86584,6076.2604 C1491.6268,6046.09964 1481.21421,6003.71285 1497.87204,5955.16093 C1513.9822,5908.20528 1528,5875.35219 1528,5827.312 C1528,5759.92213 1492.12104,5723.29274 1458.86584,5689.46226 C1435.53866,5665.73155 1422.73516,5639.66267 1390.81579,5609.63774 C1319.32525,5542.39024 1268.82732,5578.44232 1162.91613,5578.44232 C1067.2485,5578.44232 1030.81392,5522.37746 962.033857,5578.44232 C926.108548,5607.72621 915.191691,5661.18697 884.172327,5689.46226 C837.630098,5731.8872 778,5752.36283 778,5827.312 C778,5883.0736 830.127531,5934.09347 850.778909,5982.30107 C869.940883,6027.03188 856.41305,6089.67325 884.172327,6124.50428 C915.967109,6164.39887 985.427155,6156.97059 1040.18613,6172.80623 C1089.87281,6187.17502 1122.84971,6221.5246 1195.70547,6221.5246 Z" id="backimg__3"></path>
        </g>
    </g>
</svg>