<?xml version="1.0" encoding="UTF-8"?>
<svg width="687px" height="613px" viewBox="0 0 687 613" version="1.1" xmlns="http://www.w3.org/2000/svg" xmlns:xlink="http://www.w3.org/1999/xlink">
    <!-- Generator: Sketch 50 (54983) - http://www.bohemiancoding.com/sketch -->
    <title>backimg__15</title>
    <desc>Created with Sketch.</desc>
    <defs></defs>
    <g id="Page-1" stroke="none" stroke-width="1" fill="none" fill-rule="evenodd">
        <g id="изображения" transform="translate(-1265.000000, -4973.000000)" fill="#E7F4FC">
            <path d="M1647.61821,5585.5246 C1714.35409,5585.5246 1732.17809,5548.78322 1775.85347,5530.37071 C1829.75254,5507.64814 1847.6857,5490.17941 1888.67311,5452.43823 C1918.68215,5424.80592 1909.14422,5385.97252 1924.40279,5341.49082 C1939.15969,5298.47157 1952,5268.37263 1952,5224.35976 C1952,5162.61934 1919.13487,5129.06068 1888.67311,5098.06628 C1867.30541,5076.32498 1855.57741,5052.44151 1826.33926,5024.93364 C1760.85393,4963.32366 1714.59782,4996.35341 1617.58318,4996.35341 C1529.95163,4996.35341 1496.57755,4944.98859 1433.57501,4996.35341 C1400.66743,5023.18236 1390.66759,5072.16139 1362.25385,5098.06628 C1319.62117,5136.93464 1265,5155.69375 1265,5224.35976 C1265,5275.44674 1312.74882,5322.18949 1331.66548,5366.35574 C1349.21785,5407.33666 1336.82635,5464.72666 1362.25385,5496.63772 C1391.37787,5533.18786 1455.00327,5526.38231 1505.1625,5540.8904 C1550.6755,5554.05462 1580.88234,5585.5246 1647.61821,5585.5246 Z" id="backimg__15"></path>
        </g>
    </g>
</svg>