<?xml version="1.0" encoding="UTF-8"?>
<svg width="175px" height="181px" viewBox="0 0 175 181" version="1.1" xmlns="http://www.w3.org/2000/svg" xmlns:xlink="http://www.w3.org/1999/xlink">
    <!-- Generator: Sketch 50 (54983) - http://www.bohemiancoding.com/sketch -->
    <title>backimg__13</title>
    <desc>Created with Sketch.</desc>
    <defs></defs>
    <g id="Page-1" stroke="none" stroke-width="1" fill="none" fill-rule="evenodd">
        <g id="изображения" transform="translate(-1170.000000, -589.000000)" fill="#E7F4FC">
            <path d="M1272.558,758.01747 C1311.30255,750.498829 1332.33329,752.637771 1341.71237,711.044439 C1344.64278,698.048987 1353.33117,676.236117 1352.93786,671.436775 C1351.25744,650.931145 1343.09831,646.45472 1325.18509,626.382407 C1313.88952,613.725371 1295.4362,594.475397 1279.06668,594.475397 C1256.66746,594.475397 1226.29062,603.013584 1197.98565,617.419979 C1177.2775,627.959823 1182.76092,650.404013 1176.58164,671.436775 C1173.7363,681.121621 1167.47482,702.218794 1170.99828,711.044439 C1179.88603,733.306688 1194.12719,736.024008 1214.93392,758.01747 C1225.89932,769.608304 1265.74808,759.338982 1272.558,758.01747 Z" id="backimg__13" transform="translate(1261.450793, 678.975397) rotate(45.000000) translate(-1261.450793, -678.975397) "></path>
        </g>
    </g>
</svg>