<svg width="124" height="105" viewBox="0 0 124 105" fill="none" xmlns="http://www.w3.org/2000/svg">
<path fill-rule="evenodd" clip-rule="evenodd" d="M23.6551 96.3961C41.4811 102.607 50.2988 107.696 71.6939 103.277C72.3461 103.142 97.76 93.8564 106.612 86.2225C121.554 73.3356 123.246 55.8098 123.246 51.5006C123.246 39.8378 119.607 41.1107 113.158 27.263C110.442 21.431 109.75 13.9667 95.7794 3.70693C89.9211 -0.595351 51.6342 -0.430844 44.7515 0.635098C24.9169 3.70693 24.9048 16.821 17.4163 29.9125C8.70491 45.142 2.18521 44.8006 0.936519 56.023C-0.312173 67.2453 -0.312173 67.2453 0.936519 75.1609C3.12371 89.0258 5.82907 90.1853 23.6551 96.3961Z" fill="#E7F4FC"/>
</svg>
