<?xml version="1.0" encoding="UTF-8"?>
<svg width="489px" height="420px" viewBox="0 0 489 420" version="1.1" xmlns="http://www.w3.org/2000/svg" xmlns:xlink="http://www.w3.org/1999/xlink">
    <!-- Generator: Sketch 50 (54983) - http://www.bohemiancoding.com/sketch -->
    <title>backimg__2</title>
    <desc>Created with Sketch.</desc>
    <defs></defs>
    <g id="Page-1" stroke="none" stroke-width="1" fill="none" fill-rule="evenodd">
        <g id="изображения" transform="translate(-2501.000000, -6305.000000)" fill="#EDEDED">
            <path d="M2592.34945,6690.39971 C2663.52618,6715.19716 2698.73389,6735.51452 2784.16121,6717.87336 C2786.76522,6717.33562 2888.23936,6680.25947 2923.58218,6649.78021 C2983.24518,6598.32749 2990,6528.35318 2990,6511.14825 C2990,6464.58253 2975.47148,6469.66499 2949.7214,6414.37599 C2938.87674,6391.09098 2936.11337,6361.28848 2880.33126,6320.32506 C2856.93975,6303.14758 2704.06581,6303.8044 2676.58417,6308.06032 C2597.38745,6320.32506 2597.33921,6372.685 2567.4389,6424.95462 C2532.65552,6485.76048 2512.34871,6469.02388 2501.6375,6529.20426 C2496.57698,6604.45847 2521.17272,6665.60225 2592.34945,6690.39971 Z" id="backimg__2" transform="translate(2745.500000, 6515.024603) rotate(-360.000000) translate(-2745.500000, -6515.024603) "></path>
        </g>
    </g>
</svg>