<?xml version="1.0" encoding="UTF-8"?>
<svg width="264px" height="244px" viewBox="0 0 264 244" version="1.1" xmlns="http://www.w3.org/2000/svg" xmlns:xlink="http://www.w3.org/1999/xlink">
    <!-- Generator: Sketch 50 (54983) - http://www.bohemiancoding.com/sketch -->
    <title>backimg__11</title>
    <desc>Created with Sketch.</desc>
    <defs></defs>
    <g id="Page-1" stroke="none" stroke-width="1" fill="none" fill-rule="evenodd">
        <g id="изображения" transform="translate(-1101.000000, -2605.000000)" fill="#BDE6FF">
            <path d="M1249.02352,2840.67682 C1304.91728,2829.86599 1335.25671,2832.94151 1348.7872,2773.13571 C1353.01467,2754.44994 1365.54874,2723.08588 1364.98135,2716.18505 C1362.55713,2686.70062 1350.78657,2680.2641 1324.94455,2651.40273 C1308.6493,2633.20356 1282.02813,2605.5246 1258.41308,2605.5246 C1226.09946,2605.5246 1182.27712,2617.80141 1141.44373,2638.51593 C1111.56967,2653.67085 1119.48019,2685.94267 1110.56581,2716.18505 C1106.46106,2730.11059 1097.42811,2760.44558 1102.51113,2773.13571 C1115.3328,2805.14593 1135.87743,2809.05308 1165.89368,2840.67682 C1181.71263,2857.34293 1239.19936,2842.57698 1249.02352,2840.67682 Z" id="backimg__11"></path>
        </g>
    </g>
</svg>