<svg width="59.475" height="64" fill="none" version="1.1" viewBox="0 0 59.475 64" xmlns="http://www.w3.org/2000/svg">
 <g stroke="#ff7600">
  <g stroke-opacity=".1389">
   <path d="m28.957 63.5c11.598 0 21-14.103 21-31.5s-9.402-31.5-21-31.5-21 14.103-21 31.5 9.402 31.5 21 31.5z"/>
   <path d="m57.017 48.186c5.799-10.044-1.7136-25.238-16.78-33.936s-31.981-7.6076-37.78 2.4365c-5.799 10.044 1.7136 25.238 16.78 33.936 15.066 8.6985 31.981 7.6077 37.78-2.4365z"/>
   <path d="m2.458 48.186c-5.7989-10.044 1.7136-25.238 16.78-33.936 15.066-8.6985 31.981-7.6076 37.78 2.4365 5.799 10.044-1.7135 25.238-16.78 33.936-15.066 8.6985-31.981 7.6077-37.78-2.4365z"/>
  </g>
  <g fill="#ff7600">
   <path d="m28.457 38.5c3.5899 0 6.5-2.9101 6.5-6.5s-2.9101-6.5-6.5-6.5-6.5 2.9101-6.5 6.5 2.9101 6.5 6.5 6.5z"/>
   <path d="m28.457 12.5c1.3807 0 2.5-1.1193 2.5-2.5s-1.1193-2.5-2.5-2.5-2.5 1.1193-2.5 2.5 1.1193 2.5 2.5 2.5z"/>
   <path d="m9.4571 45.5c1.3807 0 2.5-1.1193 2.5-2.5s-1.1193-2.5-2.5-2.5c-1.3807 0-2.5 1.1193-2.5 2.5s1.1193 2.5 2.5 2.5z"/>
   <path d="m48.457 45.5c1.3807 0 2.5-1.1193 2.5-2.5s-1.1193-2.5-2.5-2.5-2.5 1.1193-2.5 2.5 1.1193 2.5 2.5 2.5z"/>
  </g>
 </g>
</svg>
