<svg width="55.275" height="57.034" fill="none" version="1.1" viewBox="0 0 55.275 57.034" xmlns="http://www.w3.org/2000/svg">
  <path d="m6.5598 51.926c9.4398 8.4996 26.529 4.9094 38.17-8.0191 11.641-12.928 13.425-30.299 3.9853-38.799-9.4398-8.4996-26.529-4.9094-38.17 8.0191-11.641 12.928-13.425 30.299-3.9853 38.799z" stroke="#f5a623" stroke-opacity=".16704"/>
  <path d="m6.5598 5.1078c9.4398-8.4997 26.529-4.9094 38.17 8.0191 11.641 12.928 13.425 30.299 3.9853 38.799-9.4398 8.4997-26.529 4.9094-38.17-8.019-11.641-12.928-13.425-30.299-3.9853-38.799z" stroke="#f5a623" stroke-opacity=".16704"/>
  <g fill="#ff7600">
   <path d="m28.138 37.017c4.6944 0 8.5-3.8056 8.5-8.5s-3.8056-8.5-8.5-8.5-8.5 3.8056-8.5 8.5 3.8056 8.5 8.5 8.5z"/>
   <path d="m12.638 14.017c1.6569 0 3-1.3431 3-3 0-1.6569-1.3431-3-3-3s-3 1.3431-3 3c0 1.6569 1.3431 3 3 3z"/>
   <path d="m43.638 48.017c1.6569 0 3-1.3431 3-3s-1.3431-3-3-3-3 1.3431-3 3 1.3431 3 3 3z"/>
  </g>
</svg>
